<?xml version="1.0" encoding="UTF-8"?>
<svg version="1.1" xmlns="http://www.w3.org/2000/svg" width="1024" height="1024">
<path d="M0 0 C1.95518555 0.00491455 3.91037109 0.0098291 5.92480469 0.01489258 C27.80048225 0.19295891 50.48969854 2.35073285 71.375 9.3125 C71.705 8.6525 72.035 7.9925 72.375 7.3125 C72.375 8.3025 72.375 9.2925 72.375 10.3125 C75.345 10.9725 78.315 11.6325 81.375 12.3125 C109.36622017 21.57113436 135.13472979 35.19296729 158.375 53.3125 C159.035 53.3125 159.695 53.3125 160.375 53.3125 C162.025 54.9625 163.675 56.6125 165.375 58.3125 C170.49701589 62.968941 170.49701589 62.968941 173.375 64.3125 C175.355 66.6225 177.335 68.9325 179.375 71.3125 C181.128125 73.045 182.88125 74.7775 184.6875 76.5625 C230.08272893 122.4565776 253.14480274 185.41377706 253.625 249.25 C253.09212207 320.25598467 224.44057253 382.09454624 174.09375 431.84765625 C168.1585964 437.46345142 161.94680801 442.46041745 155.375 447.3125 C152.095625 449.7565625 152.095625 449.7565625 148.75 452.25 C133.23975718 462.89686159 116.57014665 474.11388667 98.375 479.3125 C98.045 479.9725 97.715 480.6325 97.375 481.3125 C94.05872093 482.36767971 90.7198555 483.35174363 87.375 484.3125 C85.126875 485.09625 82.87875 485.88 80.5625 486.6875 C55.07011431 494.86063129 29.54708509 498.49666913 2.8125 498.4375 C1.09224609 498.44136719 -0.62800781 498.44523437 -2.40039062 498.44921875 C-32.10584612 498.42675716 -32.10584612 498.42675716 -46.625 494.3125 C-50.72883631 493.35275298 -54.83300798 492.39443891 -58.9375 491.4375 C-68.3623738 489.19214591 -77.46584617 486.49016561 -86.625 483.3125 C-87.615 483.3125 -88.605 483.3125 -89.625 483.3125 C-89.625 482.6525 -89.625 481.9925 -89.625 481.3125 C-91.275 481.3125 -92.925 481.3125 -94.625 481.3125 C-94.625 480.6525 -94.625 479.9925 -94.625 479.3125 C-96.275 478.9825 -97.925 478.6525 -99.625 478.3125 C-104.97520994 475.67985701 -110.30812664 473.0118357 -115.625 470.3125 C-119.09 468.8275 -119.09 468.8275 -122.625 467.3125 C-124.625 466.3125 -124.625 466.3125 -129.625 462.3125 C-131.790625 460.930625 -133.95625 459.54875 -136.1875 458.125 C-147.73818522 450.65102721 -158.17877215 442.25102486 -168.625 433.3125 C-170.275 431.9925 -171.925 430.6725 -173.625 429.3125 C-178.625 424.3125 -178.625 424.3125 -182.625 419.3125 C-184.275 417.6625 -185.925 416.0125 -187.625 414.3125 C-201.50339771 398.09504649 -201.50339771 398.09504649 -206.125 390.75 C-209.37320013 385.28181701 -209.37320013 385.28181701 -213.625 381.3125 C-213.625 380.6525 -213.625 379.9925 -213.625 379.3125 C-217.41618407 371.69963713 -217.41618407 371.69963713 -220.625 370.3125 C-220.955 368.3325 -221.285 366.3525 -221.625 364.3125 C-223.59280801 360.29656529 -225.59044422 356.29503472 -227.625 352.3125 C-227.625 351.6525 -227.625 350.9925 -227.625 350.3125 C-228.285 349.9825 -228.945 349.6525 -229.625 349.3125 C-234.69831116 336.62922211 -239.30843892 323.57874433 -242.625 310.3125 C-243.945 310.6425 -245.265 310.9725 -246.625 311.3125 C-245.965 309.3325 -245.305 307.3525 -244.625 305.3125 C-245.39105614 299.75439396 -245.39105614 299.75439396 -246.625 296.3125 C-247.32027561 290.31574786 -247.98469383 284.31537035 -248.625 278.3125 C-249.33484456 270.09368773 -249.33484456 270.09368773 -250.625 265.3125 C-250.58279402 247.2272381 -249.60727283 229.35492577 -247.24609375 211.42578125 C-246.50441951 206.17827382 -246.50441951 206.17827382 -246.625 200.3125 C-245.965 200.3125 -245.305 200.3125 -244.625 200.3125 C-244.295 197.3425 -243.965 194.3725 -243.625 191.3125 C-242.49891929 187.04581528 -241.30695826 182.79617215 -240.0625 178.5625 C-237.46338268 170.06330579 -237.46338268 170.06330579 -236.625 161.3125 C-235.635 161.3125 -234.645 161.3125 -233.625 161.3125 C-233.295 159.6625 -232.965 158.0125 -232.625 156.3125 C-223.58375332 134.38266763 -212.56617724 113.76584326 -197.4375 95.4375 C-191.30893664 89.45759247 -191.30893664 89.45759247 -191.625 85.3125 C-189.975 84.3225 -188.325 83.3325 -186.625 82.3125 C-184.25460245 79.67872495 -181.92446568 77.00842528 -179.625 74.3125 C-132.12277401 26.81027401 -67.11224728 -0.19867621 0 0 Z " fill="#76B399" transform="translate(510.625,258.6875)"/>
<path d="M0 0 C1.95518555 0.00491455 3.91037109 0.0098291 5.92480469 0.01489258 C27.80048225 0.19295891 50.48969854 2.35073285 71.375 9.3125 C71.705 8.6525 72.035 7.9925 72.375 7.3125 C72.375 8.3025 72.375 9.2925 72.375 10.3125 C75.345 10.9725 78.315 11.6325 81.375 12.3125 C109.36622017 21.57113436 135.13472979 35.19296729 158.375 53.3125 C159.035 53.3125 159.695 53.3125 160.375 53.3125 C162.025 54.9625 163.675 56.6125 165.375 58.3125 C170.49701589 62.968941 170.49701589 62.968941 173.375 64.3125 C175.355 66.6225 177.335 68.9325 179.375 71.3125 C181.128125 73.045 182.88125 74.7775 184.6875 76.5625 C230.08272893 122.4565776 253.14480274 185.41377706 253.625 249.25 C253.09212207 320.25598467 224.44057253 382.09454624 174.09375 431.84765625 C168.1585964 437.46345142 161.94680801 442.46041745 155.375 447.3125 C152.095625 449.7565625 152.095625 449.7565625 148.75 452.25 C133.23975718 462.89686159 116.57014665 474.11388667 98.375 479.3125 C98.045 479.9725 97.715 480.6325 97.375 481.3125 C94.05872093 482.36767971 90.7198555 483.35174363 87.375 484.3125 C85.126875 485.09625 82.87875 485.88 80.5625 486.6875 C55.07011431 494.86063129 29.54708509 498.49666913 2.8125 498.4375 C1.09224609 498.44136719 -0.62800781 498.44523437 -2.40039062 498.44921875 C-32.10584612 498.42675716 -32.10584612 498.42675716 -46.625 494.3125 C-50.72883631 493.35275298 -54.83300798 492.39443891 -58.9375 491.4375 C-68.3623738 489.19214591 -77.46584617 486.49016561 -86.625 483.3125 C-87.615 483.3125 -88.605 483.3125 -89.625 483.3125 C-89.625 482.6525 -89.625 481.9925 -89.625 481.3125 C-91.275 481.3125 -92.925 481.3125 -94.625 481.3125 C-94.625 480.6525 -94.625 479.9925 -94.625 479.3125 C-96.275 478.9825 -97.925 478.6525 -99.625 478.3125 C-104.97520994 475.67985701 -110.30812664 473.0118357 -115.625 470.3125 C-119.09 468.8275 -119.09 468.8275 -122.625 467.3125 C-124.625 466.3125 -124.625 466.3125 -129.625 462.3125 C-131.790625 460.930625 -133.95625 459.54875 -136.1875 458.125 C-147.73818522 450.65102721 -158.17877215 442.25102486 -168.625 433.3125 C-170.275 431.9925 -171.925 430.6725 -173.625 429.3125 C-178.625 424.3125 -178.625 424.3125 -182.625 419.3125 C-184.275 417.6625 -185.925 416.0125 -187.625 414.3125 C-201.50339771 398.09504649 -201.50339771 398.09504649 -206.125 390.75 C-209.37320013 385.28181701 -209.37320013 385.28181701 -213.625 381.3125 C-213.625 380.6525 -213.625 379.9925 -213.625 379.3125 C-217.41618407 371.69963713 -217.41618407 371.69963713 -220.625 370.3125 C-220.955 368.3325 -221.285 366.3525 -221.625 364.3125 C-223.59280801 360.29656529 -225.59044422 356.29503472 -227.625 352.3125 C-227.625 351.6525 -227.625 350.9925 -227.625 350.3125 C-228.285 349.9825 -228.945 349.6525 -229.625 349.3125 C-234.69831116 336.62922211 -239.30843892 323.57874433 -242.625 310.3125 C-243.945 310.6425 -245.265 310.9725 -246.625 311.3125 C-245.965 309.3325 -245.305 307.3525 -244.625 305.3125 C-245.39105614 299.75439396 -245.39105614 299.75439396 -246.625 296.3125 C-247.32027561 290.31574786 -247.98469383 284.31537035 -248.625 278.3125 C-249.33484456 270.09368773 -249.33484456 270.09368773 -250.625 265.3125 C-250.58279402 247.2272381 -249.60727283 229.35492577 -247.24609375 211.42578125 C-246.50441951 206.17827382 -246.50441951 206.17827382 -246.625 200.3125 C-245.965 200.3125 -245.305 200.3125 -244.625 200.3125 C-244.295 197.3425 -243.965 194.3725 -243.625 191.3125 C-242.49891929 187.04581528 -241.30695826 182.79617215 -240.0625 178.5625 C-237.46338268 170.06330579 -237.46338268 170.06330579 -236.625 161.3125 C-235.635 161.3125 -234.645 161.3125 -233.625 161.3125 C-233.295 159.6625 -232.965 158.0125 -232.625 156.3125 C-223.58375332 134.38266763 -212.56617724 113.76584326 -197.4375 95.4375 C-191.30893664 89.45759247 -191.30893664 89.45759247 -191.625 85.3125 C-189.975 84.3225 -188.325 83.3325 -186.625 82.3125 C-184.25460245 79.67872495 -181.92446568 77.00842528 -179.625 74.3125 C-132.12277401 26.81027401 -67.11224728 -0.19867621 0 0 Z M-144.625 96.3125 C-146.171875 97.653125 -147.71875 98.99375 -149.3125 100.375 C-153.47131589 104.17217972 -157.02680592 107.98246983 -160.625 112.3125 C-162.501875 114.560625 -164.37875 116.80875 -166.3125 119.125 C-201.90756844 163.89727006 -214.74879782 217.54303482 -209.97265625 274.02734375 C-202.86407373 328.97394083 -174.31573995 380.7478819 -130.375 414.9375 C-84.53719015 449.01780885 -28.85632009 466.1240342 28.25 459.0625 C87.27115152 450.30816652 138.38120309 421.5865335 174.375 373.3125 C209.70767102 322.46792463 221.04149676 265.64482698 210.75 204.6875 C199.11832286 149.4797971 164.99558434 103.37963001 118.375 72.3125 C36.11103128 20.30089521 -73.4027022 29.96844178 -144.625 96.3125 Z " fill="#144950" transform="translate(510.625,258.6875)"/>
<path d="M0 0 C7.26050314 3.63025157 12.09246712 8.45415281 18 14 C19.27230469 15.1034375 20.54460937 16.206875 21.85546875 17.34375 C32.82278398 27.01896871 42.98903149 37.47777797 52 49 C55.88697878 53.60466117 55.88697878 53.60466117 60 58 C62.01077836 60.99278639 64.00867884 63.99423221 66 67 C70.14610011 73.28645094 70.14610011 73.28645094 75 79 C78.4467933 84.2677407 81.74450705 89.52966071 84.75 95.0625 C86.66924828 99.10248645 86.66924828 99.10248645 90 101 C90 101.99 90 102.98 90 104 C90.66 104.66 91.32 105.32 92 106 C94.26159471 110.71984984 96.51896062 115.44189234 98.734375 120.18359375 C100.45311704 123.83740226 102.24186277 127.4583814 104.0625 131.0625 C106 135 106 135 106 137 C106.66 137.33 107.32 137.66 108 138 C108.99 140.97 109.98 143.94 111 147 C112.19625 149.866875 113.3925 152.73375 114.625 155.6875 C132 198.77237085 132 198.77237085 132 219 C132.66 219.33 133.32 219.66 134 220 C134.33333333 225.33333333 134.66666667 230.66666667 135 236 C135.66 236.33 136.32 236.66 137 237 C137.42151564 241.99333913 137.7365001 246.99583384 138 252 C138.17660156 254.47757813 138.35320313 256.95515625 138.53515625 259.5078125 C144.07226416 339.48826013 128.24611387 413.88027654 89 484 C88.01 485.98 87.02 487.96 86 490 C84.68 491.65 83.36 493.3 82 495 C80.22625 497.701875 78.4525 500.40375 76.625 503.1875 C57.35059937 532.22790921 33.41624305 559.27036115 7 582 C5.02 583.711875 3.04 585.42375 1 587.1875 C-65.33888958 642.27247081 -146.51414007 673.52639619 -232.9375 673.3125 C-235.28222412 673.30758545 -237.62694824 673.3026709 -240.04272461 673.29760742 C-276.42570149 673.05168276 -312.79756887 668.16367282 -347.50390625 656.88671875 C-349.72947266 656.44779297 -349.72947266 656.44779297 -352 656 C-349.21857456 659.7651003 -346.38313034 663.50094369 -343.3046875 667.02734375 C-337.64355269 673.8327505 -337 676.92066779 -337 686 C-338.32 688.64 -339.64 691.28 -341 694 C-341.33 694.99 -341.66 695.98 -342 697 C-350.57819809 700.21682428 -357.91643911 700.51392681 -367 699 C-367.66 697.68 -368.32 696.36 -369 695 C-371.32685841 692.32768163 -373.66124835 689.6619159 -376 687 C-378.38604122 683.85728051 -380.7396639 680.68971957 -383.0625 677.5 C-389.73775797 666.44275895 -389.73775797 666.44275895 -399 659 C-399.33 657.68 -399.66 656.36 -400 655 C-401.87183725 652.12286438 -403.81993928 649.29488565 -405.8125 646.5 C-406.87082031 645.0046875 -407.92914063 643.509375 -409.01953125 641.96875 C-411.98123178 637.83103751 -411.98123178 637.83103751 -416 634 C-416.66 634 -417.32 634 -418 634 C-418 632.68 -418 631.36 -418 630 C-421.58391468 624.94035574 -425.25348835 619.94045493 -429 615 C-432 611 -432 611 -432 609 C-432.66 608.67 -433.32 608.34 -434 608 C-434.61230655 599.73386159 -433.85996119 596.71992238 -430 589 C-420.65152719 581.20960599 -411.77268783 581.33342767 -400.07421875 580.52734375 C-398.3029512 580.39936905 -396.53168365 580.27139435 -394.70674133 580.13954163 C-389.03415371 579.73159421 -383.36085998 579.33454622 -377.6875 578.9375 C-373.90815383 578.6667027 -370.12885628 578.39522598 -366.34960938 578.12304688 C-356.23410081 577.39886379 -346.1183434 576.68366829 -336 576 C-332.98077393 575.74549072 -329.96154785 575.49098145 -326.85083008 575.22875977 C-316.88594291 574.93839999 -311.66829268 576.6097561 -304 583 C-301 590 -301 590 -301 599 C-305 607 -305 607 -312 612 C-317.35546875 613.328125 -317.35546875 613.328125 -323.1875 614.25 C-325.11980469 614.56453125 -327.05210937 614.8790625 -329.04296875 615.203125 C-330.67878906 615.46609375 -332.31460938 615.7290625 -334 616 C-335.32 616.33 -336.64 616.66 -338 617 C-330.27011976 619.57662675 -322.64564201 621.7052783 -314.75 623.6875 C-312.29046875 624.31011719 -309.8309375 624.93273437 -307.296875 625.57421875 C-301.2632868 627.18403043 -301.2632868 627.18403043 -296 627 C-296 627.66 -296 628.32 -296 629 C-291.67307714 629.40820027 -287.33732066 629.72334433 -283 630 C-278.14552146 630.51791839 -273.2913711 631.03891932 -268.4375 631.5625 C-219.57973628 636.25413956 -170.10997741 629.94640195 -124 613 C-124 612.34 -124 611.68 -124 611 C-121.36 610.67 -118.72 610.34 -116 610 C-76.91340472 594.98587198 -41.78661257 572.22106152 -11 544 C-9.0509375 542.329375 -9.0509375 542.329375 -7.0625 540.625 C0.83119037 533.58139936 8.14789945 526.05422345 15 518 C16.835625 515.916875 18.67125 513.83375 20.5625 511.6875 C55.42225788 471.14451449 55.42225788 471.14451449 73 423 C73.66 423 74.32 423 75 423 C76.06788672 419.68779091 77.05445708 416.34918792 78 413 C79.0725 409.885625 80.145 406.77125 81.25 403.5625 C90.49533989 376.82741365 90.49533989 376.82741365 94 349 C94 344 94 344 96 342 C98.45151358 325.41623167 99.1628787 308.80268884 99.6875 292.0625 C99.79449219 288.85660156 99.90148437 285.65070313 100.01171875 282.34765625 C100.00785156 279.92292969 100.00398437 277.49820312 100 275 C99.34 275 98.68 275 98 275 C97.34 273.68 96.68 272.36 96 271 C96.66 270.01 97.32 269.02 98 268 C98.16418225 262.33571229 98.16907892 256.66414366 98 251 C97.34 250.67 96.68 250.34 96 250 C95.8453125 247.4940625 95.8453125 247.4940625 95.6875 244.9375 C93.39931504 218.51936452 84.88334942 192.8371198 76 168 C76 167.34 76 166.68 76 166 C75.34 165.67 74.68 165.34 74 165 C73.01 162.03 72.02 159.06 71 156 C69.02 151.545 69.02 151.545 67 147 C66.34 147 65.68 147 65 147 C64.67 145.02 64.34 143.04 64 141 C58.52191424 129.27211401 51.99696474 117.87220674 45 107 C44.01 107 43.02 107 42 107 C41 104 41 104 41 101 C30.4022711 85.18849791 17.88678331 70.96068192 5 57 C3.783125 55.576875 2.56625 54.15375 1.3125 52.6875 C-2.21740117 48.75798738 -6.01425703 45.46586346 -10 42 C-21.57040573 31.00238663 -21.57040573 31.00238663 -25 23 C-25 13.83191024 -22.84410499 10.01292598 -17 3 C-10.46774905 -0.26612548 -7.17290694 -0.48906184 0 0 Z M98 270 C99 273 99 273 99 273 Z " fill="#154B51" transform="translate(754,213)"/>
<path d="M0 0 C9.19499599 5.25428343 14.78823691 12.28981143 21.4375 20.4375 C24.6777391 24.38792849 28.04751432 28.23365199 31.5 32 C36.56040203 37.52043858 41.28401813 43.18577577 46 49 C49.99299901 53.67265842 53.99327016 58.33911019 58 63 C60.02125 65.43375 62.0425 67.8675 64.125 70.375 C66.538125 73.159375 66.538125 73.159375 69 76 C69.66 76 70.32 76 71 76 C71.33 77.32 71.66 78.64 72 80 C73.32 82.31 74.64 84.62 76 87 C77 93 77 93 75 101 C69.13110128 107.8470485 67.04637796 109.21471532 59 112 C57.68 112.66 56.36 113.32 55 114 C52.36 114 49.72 114 47 114 C43.69193323 114.43812854 40.39225234 114.94235845 37.1015625 115.49609375 C34.31138672 115.96305664 34.31138672 115.96305664 31.46484375 116.43945312 C29.53769531 116.76880859 27.61054687 117.09816406 25.625 117.4375 C23.67464844 117.76298828 21.72429687 118.08847656 19.71484375 118.42382812 C11.11091104 119.41739677 11.11091104 119.41739677 3 122 C-2.99889172 122.67656674 -8.99906173 123.34183258 -15 124 C-18.3721875 124.556875 -18.3721875 124.556875 -21.8125 125.125 C-33.84728505 126.82688879 -38.95360891 127.53479331 -49 120 C-53 113 -53 113 -54 105 C-51 97 -51 97 -44 91 C-36.85312377 88.42123023 -29.97191252 86.80345386 -22.5 85.375 C-20.685 84.92125 -18.87 84.4675 -17 84 C-21.84586497 82.80410371 -21.84586497 82.80410371 -28 82 C-28.33 81.34 -28.66 80.68 -29 80 C-34.71704177 79.75746437 -34.71704177 79.75746437 -39 81 C-40.98 80.01 -42.96 79.02 -45 78 C-121.68515563 64.81533695 -202.63819841 80.84401449 -270 119 C-270.66 119.66 -271.32 120.32 -272 121 C-275.96 122.98 -275.96 122.98 -280 125 C-294.83274339 134.27216406 -308.517168 144.8766636 -322 156 C-324.475 157.98 -324.475 157.98 -327 160 C-328.65 161.65 -330.3 163.3 -332 165 C-333.44375 166.258125 -334.8875 167.51625 -336.375 168.8125 C-340.6293488 172.6644104 -344.27120372 176.64973767 -348 181 C-350.31 183.31 -352.62 185.62 -355 188 C-371.6267411 207.60466488 -386.92349431 228.84698861 -398.4375 251.875 C-401 257 -401 257 -403 258 C-403.66 259.98 -404.32 261.96 -405 264 C-406.48667383 267.33929814 -407.98887346 270.67169597 -409.5 274 C-447.36414915 360.72641098 -445.37819516 455.23333547 -411.953125 542.83203125 C-410.55706089 546.52601688 -409.2487804 550.25365881 -408 554 C-407.34 554.33 -406.68 554.66 -406 555 C-404.65646836 558.32923589 -403.32531186 561.66346926 -402 565 C-393.40135751 581.98294932 -383.33181935 597.71103738 -372 613 C-370.5975 614.918125 -369.195 616.83625 -367.75 618.8125 C-360.08288734 628.79992307 -351.83471627 638.17018151 -343.1875 647.3125 C-328 663.40346154 -328 663.40346154 -328 676 C-332 684 -332 684 -337 690 C-344.18179651 691.19696608 -350.830362 691.4339276 -358 690 C-359.98 687.69 -361.96 685.38 -364 683 C-364.99 682.34 -365.98 681.68 -367 681 C-368.98 678.69 -370.96 676.38 -373 674 C-375.31 671.69 -377.62 669.38 -380 667 C-380 666.34 -380 665.68 -380 665 C-381.32 665 -382.64 665 -384 665 C-384.66 663.35 -385.32 661.7 -386 660 C-386.99 659.34 -387.98 658.68 -389 658 C-390.485 655.525 -390.485 655.525 -392 653 C-398.48607595 642.97183856 -398.48607595 642.97183856 -408 637 C-408 635.35 -408 633.7 -408 632 C-409.98 629.36 -411.96 626.72 -414 624 C-414.99 624.66 -415.98 625.32 -417 626 C-416.505 623.525 -416.505 623.525 -416 621 C-416.99 618.525 -416.99 618.525 -418 616 C-418.99 616.33 -419.98 616.66 -421 617 C-421 616.34 -421 615.68 -421 615 C-421.99 614.67 -422.98 614.34 -424 614 C-423.34 613.67 -422.68 613.34 -422 613 C-422.99 612.67 -423.98 612.34 -425 612 C-425 611.34 -425 610.68 -425 610 C-424.34 610 -423.68 610 -423 610 C-426.18010841 603.2236068 -426.18010841 603.2236068 -430 601 C-430 600.01 -430 599.02 -430 598 C-433.75977502 589.4910965 -433.75977502 589.4910965 -440 583 C-440 581.68 -440 580.36 -440 579 C-442.29791386 574.31579098 -444.63518912 569.65079474 -447 565 C-447.763125 563.081875 -448.52625 561.16375 -449.3125 559.1875 C-450.46628156 554.99084243 -450.46628156 554.99084243 -453 554 C-453.33 552.02 -453.66 550.04 -454 548 C-456.98968714 537.14704248 -456.98968714 537.14704248 -463 528 C-463 527.01 -463 526.02 -463 525 C-463.66 524.67 -464.32 524.34 -465 524 C-464.34 523.01 -463.68 522.02 -463 521 C-464.59927231 514.9816858 -466.26748057 508.98131709 -468 503 C-468 501.68 -468 500.36 -468 499 C-468.66 498.67 -469.32 498.34 -470 498 C-470.73568528 493.67784899 -471.39063001 489.34176121 -472 485 C-472.37125 483.040625 -472.7425 481.08125 -473.125 479.0625 C-474 474 -474 474 -474 468 C-474.66 467.67 -475.32 467.34 -476 467 C-475.67 465.02 -475.34 463.04 -475 461 C-475.66 460.67 -476.32 460.34 -477 460 C-477.46951987 453.32238401 -477.77130373 446.68836272 -478 440 C-478.10441406 437.42832031 -478.20882812 434.85664062 -478.31640625 432.20703125 C-482.00393635 331.89687693 -451.029573 234.17421186 -383.32421875 158.9140625 C-372.69313098 147.4991666 -361.93232468 136.06789895 -350 126 C-347.855 124.123125 -345.71 122.24625 -343.5 120.3125 C-333.10189349 111.56076035 -322.37554595 103.4529439 -311 96 C-310.34 95.34 -309.68 94.68 -309 94 C-305 91 -305 91 -302 90 C-297.90344961 87.58236371 -293.80697086 85.16460591 -289.7109375 82.74609375 C-259.12380559 64.91628137 -226.31811757 52.46810693 -192 44 C-189.19822266 43.30583984 -189.19822266 43.30583984 -186.33984375 42.59765625 C-170.38646777 38.8883554 -154.26000904 36.86455416 -138 35 C-136.45844238 34.82275391 -134.91688477 34.64550781 -133.32861328 34.46289062 C-93.61949058 31.01340393 -46.73673793 30.84872328 -9 45 C-12.88660547 39.12489871 -17.07932406 33.30689198 -24 31 C-25.01767923 23.87624542 -25.20532494 17.186373 -25 10 C-24.34 10 -23.68 10 -23 10 C-22.34 8.68 -21.68 7.36 -21 6 C-12.89401772 -0.75498524 -10.61842163 -1.17982463 0 0 Z " fill="#154B51" transform="translate(609,94)"/>
<path d="M0 0 C4.96769792 3.31179861 8.28955337 5.57910673 11 11 C10.76990234 13.73410156 10.76990234 13.73410156 10.53515625 16.5234375 C10.06848844 23.28819242 9.86487292 29.30776486 11 36 C18.19573041 39.5947783 18.19573041 39.5947783 27 40 C44.79537669 47.92567197 57.4956128 58.23190532 66 76 C66.93030955 84.6828891 66.88646075 87.67030888 62 95 C54.50938714 99.9937419 50.98320082 100.57956134 42 100 C34.19795933 95.12372458 31.98016864 92.29238979 27 85 C16.8700232 74.52663416 5.02952069 71.86494272 -9.0625 71.625 C-21.33261878 71.70956849 -28.79167994 73.65247268 -38.5 81.375 C-44.79773456 87.84767163 -46.90914034 91.73806034 -47.5625 100.8125 C-47.01950134 108.71614714 -46.49571449 112.61608542 -42 119 C-28.89859802 130.39252346 -10.77515508 133.5596137 5.6875 137.5625 C29.14695032 143.27978072 51.13461509 149.16283676 65.8125 169.75 C75.86591315 187.15590933 77.28112284 205.59438582 73.375 225.125 C67.06067144 243.40331952 56.65702653 256.11799293 40.125 266.1875 C31.4893235 270.23962512 20.74017507 275 11 275 C10.89196256 281.32253872 11.07421657 287.62395436 11.22265625 293.9453125 C10.92037616 302.16520957 8.78965888 305.21034112 3 311 C-3 313 -3 313 -11 313 C-18.38909278 309.30545361 -22.28360908 307.14917276 -25 299 C-24.88140625 297.19402344 -24.7628125 295.38804687 -24.640625 293.52734375 C-24.26351749 287.16554012 -24.09231715 281.3123122 -25 275 C-30.72057434 272.3335921 -30.72057434 272.3335921 -38 273 C-57.82570848 267.21750169 -71.52602434 258.63196755 -84 242 C-88.26789497 233.46421007 -88.75797974 229.34841674 -88 220 C-83 213 -83 213 -76 209 C-67 208 -67 208 -59 212 C-56.55850887 214.91265609 -54.22816373 217.92108285 -52 221 C-42.34432963 233.25527393 -30.28270716 238.81675612 -15 241 C-0.6610404 241.5912973 11.57687071 239.39804328 24 232 C31.44726372 224.90182676 34.81194926 217.84426745 35.5 207.4375 C34.77923108 196.71606226 31.57232799 192.57232799 24 185 C7.47400759 175.53004929 -11.77198489 172.6264225 -30.12890625 168.31640625 C-49.4843852 163.26233359 -65.90627824 156.17704434 -77.9375 139.5625 C-87.97778591 121.32606233 -88.88109253 103.02931071 -84 83 C-77.49955385 64.42729672 -65.68301479 52.83870103 -49 43 C-42.44500043 40.12070112 -37.28037088 38.0929783 -30.13671875 37.57421875 C-28.44160156 37.05472656 -26.74648438 36.53523438 -25 36 C-23.76981056 30.81027916 -23.76981056 30.81027916 -24.5 24.75 C-25.23830735 13.4766147 -25.23830735 13.4766147 -22 7 C-13.26401556 -0.48798666 -11.44337078 -0.52978568 0 0 Z " fill="#13484F" transform="translate(519,348)"/>
<path d="M0 0 C2.97 0 5.94 0 9 0 C9 0.33 9 0.66 9 1 C6.03 1 3.06 1 0 1 C0 0.67 0 0.34 0 0 Z " fill="#24595E" transform="translate(495,887)"/>
<path d="M0 0 C0.33 0 0.66 0 1 0 C1 2.64 1 5.28 1 8 C0.34 7.34 -0.32 6.68 -1 6 C-0.67 4.02 -0.34 2.04 0 0 Z " fill="#25585D" transform="translate(129,479)"/>
<path d="M0 0 C0.33 0 0.66 0 1 0 C1 2.31 1 4.62 1 7 C0.67 7 0.34 7 0 7 C0 4.69 0 2.38 0 0 Z " fill="#25595D" transform="translate(129,522)"/>
<path d="M0 0 C0.99 0.99 1.98 1.98 3 3 C2.67 3.66 2.34 4.32 2 5 C1.34 3.35 0.68 1.7 0 0 Z " fill="#275E64" transform="translate(808,338)"/>
<path d="M0 0 C0.99 0.33 1.98 0.66 3 1 C3 1.66 3 2.32 3 3 C2.01 3 1.02 3 0 3 C0 2.01 0 1.02 0 0 Z " fill="#296166" transform="translate(341,693)"/>
<path d="M0 0 C0.99 0.33 1.98 0.66 3 1 C2.01 2.485 2.01 2.485 1 4 C0.67 2.68 0.34 1.36 0 0 Z " fill="#276066" transform="translate(848,546)"/>
<path d="M0 0 C0.33 0 0.66 0 1 0 C1 1.98 1 3.96 1 6 C0.67 6 0.34 6 0 6 C0 4.02 0 2.04 0 0 Z " fill="#286066" transform="translate(852,498)"/>
<path d="M0 0 C1.98 0 3.96 0 6 0 C6 0.33 6 0.66 6 1 C4.02 1 2.04 1 0 1 C0 0.67 0 0.34 0 0 Z " fill="#21555B" transform="translate(464,128)"/>
<path d="M0 0 C1.65 0 3.3 0 5 0 C5 0.33 5 0.66 5 1 C3.35 1 1.7 1 0 1 C0 0.67 0 0.34 0 0 Z " fill="#22565B" transform="translate(531,887)"/>
<path d="M0 0 C1.65 0 3.3 0 5 0 C5 0.33 5 0.66 5 1 C3.35 1 1.7 1 0 1 C0 0.67 0 0.34 0 0 Z " fill="#235659" transform="translate(507,887)"/>
<path d="M0 0 C0.66 0.33 1.32 0.66 2 1 C1.67 1.66 1.34 2.32 1 3 C0.34 2.34 -0.32 1.68 -1 1 C-0.67 0.67 -0.34 0.34 0 0 Z " fill="#23585F" transform="translate(321,824)"/>
<path d="M0 0 C1.65 0 3.3 0 5 0 C5 0.33 5 0.66 5 1 C3.35 1 1.7 1 0 1 C0 0.67 0 0.34 0 0 Z " fill="#245F64" transform="translate(352,792)"/>
<path d="M0 0 C0.66 0.66 1.32 1.32 2 2 C0.68 1.67 -0.64 1.34 -2 1 C-1.34 0.67 -0.68 0.34 0 0 Z " fill="#2A6267" transform="translate(579,749)"/>
<path d="M0 0 C0.33 0.66 0.66 1.32 1 2 C-0.32 1.67 -1.64 1.34 -3 1 C-2.01 0.67 -1.02 0.34 0 0 Z " fill="#23555A" transform="translate(155,644)"/>
<path d="M0 0 C0.66 0 1.32 0 2 0 C2 0.66 2 1.32 2 2 C1.01 1.67 0.02 1.34 -1 1 C-0.67 0.67 -0.34 0.34 0 0 Z " fill="#286369" transform="translate(273,592)"/>
<path d="M0 0 C0.33 1.32 0.66 2.64 1 4 C0.34 3.01 -0.32 2.02 -1 1 C-0.67 0.67 -0.34 0.34 0 0 Z " fill="#255D63" transform="translate(850,465)"/>
<path d="M0 0 C0.66 0.66 1.32 1.32 2 2 C1.01 2.495 1.01 2.495 0 3 C0 2.01 0 1.02 0 0 Z " fill="#22555A" transform="translate(377,900)"/>
<path d="M0 0 C4 1 4 1 4 1 Z " fill="#23565A" transform="translate(596,879)"/>
<path d="M0 0 C4 1 4 1 4 1 Z " fill="#24595E" transform="translate(433,878)"/>
<path d="M0 0 C0.66 0.66 1.32 1.32 2 2 C1.01 2.495 1.01 2.495 0 3 C0 2.01 0 1.02 0 0 Z " fill="#23575C" transform="translate(324,828)"/>
<path d="M0 0 C4 1 4 1 4 1 Z " fill="#265D63" transform="translate(360,792)"/>
<path d="M0 0 C0.99 0.33 1.98 0.66 3 1 C2.01 1.33 1.02 1.66 0 2 C0 1.34 0 0.68 0 0 Z " fill="#286166" transform="translate(400,733)"/>
<path d="M0 0 C0.99 0.33 1.98 0.66 3 1 C2.01 1 1.02 1 0 1 C0 0.67 0 0.34 0 0 Z " fill="#225258" transform="translate(202,733)"/>
<path d="M0 0 C0.99 1.485 0.99 1.485 2 3 C1.34 3 0.68 3 0 3 C0 2.01 0 1.02 0 0 Z " fill="#235459" transform="translate(177,691)"/>
<path d="M0 0 C0.66 0.66 1.32 1.32 2 2 C1.01 2.495 1.01 2.495 0 3 C0 2.01 0 1.02 0 0 Z " fill="#286067" transform="translate(288,624)"/>
<path d="M0 0 C1 4 1 4 1 4 Z " fill="#255D63" transform="translate(183,591)"/>
<path d="M0 0 C0.66 0 1.32 0 2 0 C1.67 0.99 1.34 1.98 1 3 C0.67 2.01 0.34 1.02 0 0 Z " fill="#29646A" transform="translate(267,573)"/>
<path d="M0 0 C1 4 1 4 1 4 Z " fill="#2A6269" transform="translate(261,540)"/>
<path d="M0 0 C1 4 1 4 1 4 Z " fill="#266065" transform="translate(851,476)"/>
<path d="M0 0 C0.33 0.99 0.66 1.98 1 3 C0.34 2.67 -0.32 2.34 -1 2 C-0.67 1.34 -0.34 0.68 0 0 Z " fill="#25595D" transform="translate(130,467)"/>
<path d="M0 0 C0.66 0 1.32 0 2 0 C1.67 0.99 1.34 1.98 1 3 C0.67 2.01 0.34 1.02 0 0 Z " fill="#276067" transform="translate(842,427)"/>
<path d="M0 0 C0 3 0 3 0 3 Z " fill="#2A6469" transform="translate(273,417)"/>
<path d="M0 0 C0 3 0 3 0 3 Z " fill="#275E65" transform="translate(829,381)"/>
<path d="M0 0 C4 1 4 1 4 1 Z " fill="#28656B" transform="translate(551,171)"/>
<path d="M0 0 C3 1 3 1 3 1 Z " fill="#23585E" transform="translate(539,887)"/>
<path d="M0 0 C3 1 3 1 3 1 Z " fill="#215359" transform="translate(523,887)"/>
<path d="M0 0 C0.66 0 1.32 0 2 0 C1.67 0.66 1.34 1.32 1 2 C0.67 1.34 0.34 0.68 0 0 Z " fill="#22585C" transform="translate(467,886)"/>
<path d="M0 0 C3 1 3 1 3 1 Z " fill="#22585E" transform="translate(462,883)"/>
<path d="M0 0 C0.66 0 1.32 0 2 0 C1.67 0.66 1.34 1.32 1 2 C0.67 1.34 0.34 0.68 0 0 Z " fill="#23575B" transform="translate(603,878)"/>
<path d="M0 0 C3 1 3 1 3 1 Z " fill="#255E64" transform="translate(462,840)"/>
<path d="M0 0 C3 1 3 1 3 1 Z " fill="#276167" transform="translate(409,788)"/>
<path d="M0 0 C3 1 3 1 3 1 Z " fill="#266167" transform="translate(722,769)"/>
<path d="M0 0 C3 1 3 1 3 1 Z " fill="#2A646A" transform="translate(446,750)"/>
<path d="M0 0 C3 1 3 1 3 1 Z " fill="#215258" transform="translate(216,749)"/>
<path d="M0 0 C0.66 0.66 1.32 1.32 2 2 C1.34 2 0.68 2 0 2 C0 1.34 0 0.68 0 0 Z " fill="#286267" transform="translate(420,742)"/>
<path d="M0 0 C0.33 0.66 0.66 1.32 1 2 C0.34 1.67 -0.32 1.34 -1 1 C-0.67 0.67 -0.34 0.34 0 0 Z " fill="#215359" transform="translate(209,739)"/>
<path d="" fill="#225358" transform="translate(0,0)"/>
<path d="M0 0 C0.33 0.66 0.66 1.32 1 2 C0.34 1.67 -0.32 1.34 -1 1 C-0.67 0.67 -0.34 0.34 0 0 Z " fill="#25575E" transform="translate(140,598)"/>
<path d="" fill="#286368" transform="translate(0,0)"/>
<path d="" fill="#275F65" transform="translate(0,0)"/>
<path d="" fill="#266066" transform="translate(0,0)"/>
<path d="" fill="#265B5E" transform="translate(0,0)"/>
<path d="M0 0 C0.33 0.66 0.66 1.32 1 2 C0.34 1.67 -0.32 1.34 -1 1 C-0.67 0.67 -0.34 0.34 0 0 Z " fill="#276166" transform="translate(849,551)"/>
<path d="" fill="#286167" transform="translate(0,0)"/>
<path d="" fill="#286267" transform="translate(0,0)"/>
<path d="" fill="#2A646A" transform="translate(0,0)"/>
<path d="" fill="#2B656B" transform="translate(0,0)"/>
<path d="" fill="#245559" transform="translate(0,0)"/>
<path d="" fill="#286066" transform="translate(0,0)"/>
<path d="" fill="#276167" transform="translate(0,0)"/>
<path d="" fill="#2A6369" transform="translate(0,0)"/>
<path d="" fill="#286267" transform="translate(0,0)"/>
<path d="M0 0 C0.33 0.66 0.66 1.32 1 2 C0.34 1.67 -0.32 1.34 -1 1 C-0.67 0.67 -0.34 0.34 0 0 Z " fill="#285F64" transform="translate(801,325)"/>
<path d="M0 0 C3 1 3 1 3 1 Z " fill="#286067" transform="translate(344,312)"/>
<path d="M0 0 C0.66 0.66 1.32 1.32 2 2 C1.34 2 0.68 2 0 2 C0 1.34 0 0.68 0 0 Z " fill="#265E66" transform="translate(731,245)"/>
<path d="M0 0 C3 1 3 1 3 1 Z " fill="#28626A" transform="translate(569,221)"/>
<path d="M0 0 C0.99 0.495 0.99 0.495 2 1 C1.01 1.495 1.01 1.495 0 2 C0 1.34 0 0.68 0 0 Z " fill="#285D64" transform="translate(728,218)"/>
<path d="M0 0 C0.66 0 1.32 0 2 0 C1.67 0.66 1.34 1.32 1 2 C0.67 1.34 0.34 0.68 0 0 Z " fill="#275E64" transform="translate(731,217)"/>
<path d="M0 0 C0.33 0.66 0.66 1.32 1 2 C0.34 1.67 -0.32 1.34 -1 1 C-0.67 0.67 -0.34 0.34 0 0 Z " fill="#256067" transform="translate(340,214)"/>
<path d="M0 0 C0.33 0.66 0.66 1.32 1 2 C0.34 1.67 -0.32 1.34 -1 1 C-0.67 0.67 -0.34 0.34 0 0 Z " fill="#21555A" transform="translate(316,176)"/>
<path d="M0 0 C3 1 3 1 3 1 Z " fill="#23595D" transform="translate(416,136)"/>
<path d="M0 0 C0.33 0.66 0.66 1.32 1 2 C0.34 1.67 -0.32 1.34 -1 1 C-0.67 0.67 -0.34 0.34 0 0 Z " fill="#255D64" transform="translate(593,132)"/>
<path d="M0 0 C0.66 0.66 1.32 1.32 2 2 C1.34 2 0.68 2 0 2 C0 1.34 0 0.68 0 0 Z " fill="#23595E" transform="translate(584,100)"/>
<path d="M0 0 C2 1 2 1 2 1 Z " fill="#23555A" transform="translate(572,887)"/>
<path d="M0 0 C2 1 2 1 2 1 Z " fill="#205158" transform="translate(516,887)"/>
<path d="M0 0 C2 1 2 1 2 1 Z " fill="#245A60" transform="translate(488,886)"/>
<path d="M0 0 C2 1 2 1 2 1 Z " fill="#255A5F" transform="translate(483,886)"/>
<path d="M0 0 C2 1 2 1 2 1 Z " fill="#23545B" transform="translate(561,885)"/>
<path d="M0 0 C2 1 2 1 2 1 Z " fill="#255A60" transform="translate(474,885)"/>
<path d="M0 0 C2 1 2 1 2 1 Z " fill="#24575C" transform="translate(570,884)"/>
<path d="M0 0 C2 1 2 1 2 1 Z " fill="#23575C" transform="translate(469,884)"/>
<path d="M0 0 C2 1 2 1 2 1 Z " fill="#245A60" transform="translate(465,884)"/>
<path d="" fill="#225359" transform="translate(0,0)"/>
<path d="M0 0 C2 1 2 1 2 1 Z " fill="#255960" transform="translate(437,879)"/>
<path d="M0 0 C2 1 2 1 2 1 Z " fill="#22535A" transform="translate(360,878)"/>
<path d="M0 0 C2 1 2 1 2 1 Z " fill="#255D60" transform="translate(425,876)"/>
<path d="M0 0 C2 1 2 1 2 1 Z " fill="#27575B" transform="translate(628,871)"/>
<path d="M0 0 C2 1 2 1 2 1 Z " fill="#215358" transform="translate(353,869)"/>
<path d="" fill="#204F57" transform="translate(0,0)"/>
<path d="M0 0 C2 1 2 1 2 1 Z " fill="#20545A" transform="translate(344,861)"/>
<path d="M0 0 C2 1 2 1 2 1 Z " fill="#205358" transform="translate(346,859)"/>
<path d="M0 0 C2 1 2 1 2 1 Z " fill="#265E65" transform="translate(571,840)"/>
<path d="M0 0 C2 1 2 1 2 1 Z " fill="#245D62" transform="translate(603,833)"/>
<path d="M0 0 C2 1 2 1 2 1 Z " fill="#266166" transform="translate(618,828)"/>
<path d="M0 0 C2 1 2 1 2 1 Z " fill="#286367" transform="translate(624,826)"/>
<path d="M0 0 C2 1 2 1 2 1 Z " fill="#256266" transform="translate(627,825)"/>
<path d="M0 0 C2 1 2 1 2 1 Z " fill="#266064" transform="translate(647,817)"/>
<path d="" fill="#286165" transform="translate(0,0)"/>
<path d="M0 0 C2 1 2 1 2 1 Z " fill="#276167" transform="translate(341,793)"/>
<path d="" fill="#245C61" transform="translate(0,0)"/>
<path d="M0 0 C2 1 2 1 2 1 Z " fill="#286468" transform="translate(524,758)"/>
<path d="M0 0 C2 1 2 1 2 1 Z " fill="#296267" transform="translate(499,758)"/>
<path d="M0 0 C2 1 2 1 2 1 Z " fill="#296368" transform="translate(489,757)"/>
<path d="" fill="#296367" transform="translate(0,0)"/>
<path d="" fill="#296369" transform="translate(0,0)"/>
<path d="" fill="#215358" transform="translate(0,0)"/>
<path d="" fill="#296168" transform="translate(0,0)"/>
<path d="M0 0 C2 1 2 1 2 1 Z " fill="#275D63" transform="translate(650,717)"/>
<path d="M0 0 C2 1 2 1 2 1 Z " fill="#1F5056" transform="translate(838,705)"/>
<path d="M0 0 C2 1 2 1 2 1 Z " fill="#2A6065" transform="translate(352,702)"/>
<path d="" fill="#215259" transform="translate(0,0)"/>
<path d="M0 0 C2 1 2 1 2 1 Z " fill="#296368" transform="translate(326,679)"/>
<path d="" fill="#286065" transform="translate(0,0)"/>
<path d="" fill="#24565B" transform="translate(0,0)"/>
<path d="" fill="#266066" transform="translate(0,0)"/>
<path d="" fill="#24555B" transform="translate(0,0)"/>
<path d="" fill="#296166" transform="translate(0,0)"/>
<path d="" fill="#225259" transform="translate(0,0)"/>
<path d="" fill="#265F65" transform="translate(0,0)"/>
<path d="M0 0 C2 1 2 1 2 1 Z " fill="#276067" transform="translate(299,646)"/>
<path d="" fill="#275E63" transform="translate(0,0)"/>
<path d="" fill="#255B60" transform="translate(0,0)"/>
<path d="" fill="#24555C" transform="translate(0,0)"/>
<path d="" fill="#296169" transform="translate(0,0)"/>
<path d="M0 0 C2 1 2 1 2 1 Z " fill="#235558" transform="translate(876,631)"/>
<path d="" fill="#235359" transform="translate(0,0)"/>
<path d="" fill="#24555B" transform="translate(0,0)"/>
<path d="" fill="#22545A" transform="translate(0,0)"/>
<path d="" fill="#26585C" transform="translate(0,0)"/>
<path d="" fill="#296267" transform="translate(0,0)"/>
<path d="" fill="#2B6268" transform="translate(0,0)"/>
<path d="" fill="#26575C" transform="translate(0,0)"/>
<path d="" fill="#2B6369" transform="translate(0,0)"/>
<path d="" fill="#285F64" transform="translate(0,0)"/>
<path d="" fill="#215159" transform="translate(0,0)"/>
<path d="" fill="#2A656B" transform="translate(0,0)"/>
<path d="" fill="#296268" transform="translate(0,0)"/>
<path d="" fill="#286067" transform="translate(0,0)"/>
<path d="" fill="#275F64" transform="translate(0,0)"/>
<path d="" fill="#2A6368" transform="translate(0,0)"/>
<path d="" fill="#2A656B" transform="translate(0,0)"/>
<path d="" fill="#276167" transform="translate(0,0)"/>
<path d="" fill="#245A5D" transform="translate(0,0)"/>
<path d="" fill="#276167" transform="translate(0,0)"/>
<path d="M0 0 C2 1 2 1 2 1 Z " fill="#286168" transform="translate(848,530)"/>
<path d="" fill="#296267" transform="translate(0,0)"/>
<path d="" fill="#296369" transform="translate(0,0)"/>
<path d="" fill="#245A5E" transform="translate(0,0)"/>
<path d="M0 0 C2 1 2 1 2 1 Z " fill="#24595D" transform="translate(128,496)"/>
<path d="" fill="#255D63" transform="translate(0,0)"/>
<path d="" fill="#25595E" transform="translate(0,0)"/>
<path d="" fill="#266268" transform="translate(0,0)"/>
<path d="" fill="#265F65" transform="translate(0,0)"/>
<path d="" fill="#265F65" transform="translate(0,0)"/>
<path d="" fill="#275E62" transform="translate(0,0)"/>
<path d="" fill="#2B656A" transform="translate(0,0)"/>
<path d="" fill="#255A5D" transform="translate(0,0)"/>
<path d="" fill="#2A6569" transform="translate(0,0)"/>
<path d="" fill="#275E63" transform="translate(0,0)"/>
<path d="" fill="#265F64" transform="translate(0,0)"/>
<path d="" fill="#275F64" transform="translate(0,0)"/>
<path d="" fill="#22575C" transform="translate(0,0)"/>
<path d="" fill="#275F64" transform="translate(0,0)"/>
<path d="" fill="#24555A" transform="translate(0,0)"/>
<path d="" fill="#205358" transform="translate(0,0)"/>
<path d="" fill="#296167" transform="translate(0,0)"/>
<path d="" fill="#2A6368" transform="translate(0,0)"/>
<path d="M0 0 C2 1 2 1 2 1 Z " fill="#2A6369" transform="translate(297,371)"/>
<path d="" fill="#265E65" transform="translate(0,0)"/>
<path d="" fill="#235559" transform="translate(0,0)"/>
<path d="" fill="#265E64" transform="translate(0,0)"/>
<path d="" fill="#296066" transform="translate(0,0)"/>
<path d="" fill="#225359" transform="translate(0,0)"/>
<path d="M0 0 C2 1 2 1 2 1 Z " fill="#255F65" transform="translate(808,343)"/>
<path d="" fill="#296166" transform="translate(0,0)"/>
<path d="" fill="#255D63" transform="translate(0,0)"/>
<path d="" fill="#215358" transform="translate(0,0)"/>
<path d="M0 0 C2 1 2 1 2 1 Z " fill="#286167" transform="translate(342,320)"/>
<path d="M0 0 C2 1 2 1 2 1 Z " fill="#265E65" transform="translate(792,314)"/>
<path d="" fill="#286266" transform="translate(0,0)"/>
<path d="" fill="#276266" transform="translate(0,0)"/>
<path d="" fill="#276267" transform="translate(0,0)"/>
<path d="" fill="#215258" transform="translate(0,0)"/>
<path d="" fill="#255E64" transform="translate(0,0)"/>
<path d="M0 0 C2 1 2 1 2 1 Z " fill="#275F66" transform="translate(765,279)"/>
<path d="M0 0 C2 1 2 1 2 1 Z " fill="#286166" transform="translate(420,273)"/>
<path d="M0 0 C2 1 2 1 2 1 Z " fill="#286167" transform="translate(571,264)"/>
<path d="M0 0 C2 1 2 1 2 1 Z " fill="#255E64" transform="translate(738,251)"/>
<path d="M0 0 C2 1 2 1 2 1 Z " fill="#275F66" transform="translate(730,243)"/>
<path d="M0 0 C2 1 2 1 2 1 Z " fill="#275E63" transform="translate(323,223)"/>
<path d="M0 0 C2 1 2 1 2 1 Z " fill="#286067" transform="translate(578,221)"/>
<path d="M0 0 C2 1 2 1 2 1 Z " fill="#29646B" transform="translate(590,219)"/>
<path d="M0 0 C2 1 2 1 2 1 Z " fill="#275E65" transform="translate(352,206)"/>
<path d="" fill="#28666A" transform="translate(0,0)"/>
<path d="" fill="#266268" transform="translate(0,0)"/>
<path d="M0 0 C2 1 2 1 2 1 Z " fill="#276369" transform="translate(441,175)"/>
<path d="" fill="#235459" transform="translate(0,0)"/>
<path d="M0 0 C2 1 2 1 2 1 Z " fill="#25565E" transform="translate(401,140)"/>
<path d="M0 0 C2 1 2 1 2 1 Z " fill="#276065" transform="translate(594,136)"/>
<path d="" fill="#245A61" transform="translate(0,0)"/>
<path d="M0 0 C2 1 2 1 2 1 Z " fill="#265D62" transform="translate(575,131)"/>
<path d="M0 0 C2 1 2 1 2 1 Z " fill="#265D62" transform="translate(569,130)"/>
<path d="M0 0 C2 1 2 1 2 1 Z " fill="#225459" transform="translate(549,128)"/>
<path d="" fill="#102425" transform="translate(0,0)"/>
<path d="" fill="#215359" transform="translate(0,0)"/>
<path d="" fill="#1E5056" transform="translate(0,0)"/>
<path d="" fill="#224F56" transform="translate(0,0)"/>
<path d="" fill="#225459" transform="translate(0,0)"/>
<path d="" fill="#225558" transform="translate(0,0)"/>
<path d="" fill="#21535B" transform="translate(0,0)"/>
<path d="" fill="#215257" transform="translate(0,0)"/>
<path d="" fill="#23575E" transform="translate(0,0)"/>
<path d="" fill="#22515A" transform="translate(0,0)"/>
<path d="" fill="#225458" transform="translate(0,0)"/>
<path d="" fill="#205157" transform="translate(0,0)"/>
<path d="" fill="#25575F" transform="translate(0,0)"/>
<path d="" fill="#22575C" transform="translate(0,0)"/>
<path d="" fill="#22555B" transform="translate(0,0)"/>
<path d="" fill="#24555B" transform="translate(0,0)"/>
<path d="" fill="#24565B" transform="translate(0,0)"/>
<path d="" fill="#1F5258" transform="translate(0,0)"/>
<path d="" fill="#255A5F" transform="translate(0,0)"/>
<path d="" fill="#21575E" transform="translate(0,0)"/>
<path d="" fill="#20545B" transform="translate(0,0)"/>
<path d="" fill="#27585F" transform="translate(0,0)"/>
<path d="" fill="#225458" transform="translate(0,0)"/>
<path d="" fill="#245B5E" transform="translate(0,0)"/>
<path d="" fill="#22555A" transform="translate(0,0)"/>
<path d="" fill="#24595F" transform="translate(0,0)"/>
<path d="" fill="#215158" transform="translate(0,0)"/>
<path d="" fill="#21535A" transform="translate(0,0)"/>
<path d="" fill="#20545A" transform="translate(0,0)"/>
<path d="" fill="#245C61" transform="translate(0,0)"/>
<path d="" fill="#25585D" transform="translate(0,0)"/>
<path d="" fill="#26595D" transform="translate(0,0)"/>
<path d="" fill="#285D62" transform="translate(0,0)"/>
<path d="" fill="#275B61" transform="translate(0,0)"/>
<path d="" fill="#24585B" transform="translate(0,0)"/>
<path d="" fill="#255E61" transform="translate(0,0)"/>
<path d="" fill="#225960" transform="translate(0,0)"/>
<path d="" fill="#235257" transform="translate(0,0)"/>
<path d="" fill="#245B60" transform="translate(0,0)"/>
<path d="" fill="#275E63" transform="translate(0,0)"/>
<path d="" fill="#245A60" transform="translate(0,0)"/>
<path d="" fill="#25575D" transform="translate(0,0)"/>
<path d="" fill="#20555D" transform="translate(0,0)"/>
<path d="" fill="#20545A" transform="translate(0,0)"/>
<path d="" fill="#245258" transform="translate(0,0)"/>
<path d="" fill="#1F5258" transform="translate(0,0)"/>
<path d="" fill="#20535A" transform="translate(0,0)"/>
<path d="" fill="#25585B" transform="translate(0,0)"/>
<path d="" fill="#21555B" transform="translate(0,0)"/>
<path d="" fill="#22555B" transform="translate(0,0)"/>
<path d="" fill="#22565B" transform="translate(0,0)"/>
<path d="" fill="#25595D" transform="translate(0,0)"/>
<path d="" fill="#24565C" transform="translate(0,0)"/>
<path d="" fill="#25595F" transform="translate(0,0)"/>
<path d="" fill="#245459" transform="translate(0,0)"/>
<path d="" fill="#235257" transform="translate(0,0)"/>
<path d="" fill="#23565C" transform="translate(0,0)"/>
<path d="" fill="#24575A" transform="translate(0,0)"/>
<path d="" fill="#24565B" transform="translate(0,0)"/>
<path d="" fill="#23565C" transform="translate(0,0)"/>
<path d="" fill="#296064" transform="translate(0,0)"/>
<path d="" fill="#286166" transform="translate(0,0)"/>
<path d="" fill="#286167" transform="translate(0,0)"/>
<path d="" fill="#276065" transform="translate(0,0)"/>
<path d="" fill="#276166" transform="translate(0,0)"/>
<path d="" fill="#255F64" transform="translate(0,0)"/>
<path d="" fill="#265E64" transform="translate(0,0)"/>
<path d="" fill="#225259" transform="translate(0,0)"/>
<path d="" fill="#26595B" transform="translate(0,0)"/>
<path d="" fill="#23575F" transform="translate(0,0)"/>
<path d="" fill="#276267" transform="translate(0,0)"/>
<path d="" fill="#286067" transform="translate(0,0)"/>
<path d="" fill="#275E64" transform="translate(0,0)"/>
<path d="" fill="#266064" transform="translate(0,0)"/>
<path d="" fill="#255E65" transform="translate(0,0)"/>
<path d="" fill="#256064" transform="translate(0,0)"/>
<path d="" fill="#23585E" transform="translate(0,0)"/>
<path d="" fill="#225359" transform="translate(0,0)"/>
<path d="" fill="#285F66" transform="translate(0,0)"/>
<path d="" fill="#275B62" transform="translate(0,0)"/>
<path d="" fill="#245D65" transform="translate(0,0)"/>
<path d="" fill="#255860" transform="translate(0,0)"/>
<path d="" fill="#276267" transform="translate(0,0)"/>
<path d="" fill="#24575B" transform="translate(0,0)"/>
<path d="" fill="#21575C" transform="translate(0,0)"/>
<path d="" fill="#275E62" transform="translate(0,0)"/>
<path d="" fill="#276467" transform="translate(0,0)"/>
<path d="" fill="#286065" transform="translate(0,0)"/>
<path d="" fill="#2A6468" transform="translate(0,0)"/>
<path d="" fill="#296266" transform="translate(0,0)"/>
<path d="" fill="#276266" transform="translate(0,0)"/>
<path d="" fill="#256265" transform="translate(0,0)"/>
<path d="" fill="#265B63" transform="translate(0,0)"/>
<path d="" fill="#266166" transform="translate(0,0)"/>
<path d="" fill="#255C61" transform="translate(0,0)"/>
<path d="" fill="#276265" transform="translate(0,0)"/>
<path d="" fill="#255C62" transform="translate(0,0)"/>
<path d="" fill="#286167" transform="translate(0,0)"/>
<path d="" fill="#276466" transform="translate(0,0)"/>
<path d="" fill="#275F65" transform="translate(0,0)"/>
<path d="" fill="#286265" transform="translate(0,0)"/>
<path d="" fill="#276568" transform="translate(0,0)"/>
<path d="" fill="#2C6063" transform="translate(0,0)"/>
<path d="" fill="#275F67" transform="translate(0,0)"/>
<path d="" fill="#31636A" transform="translate(0,0)"/>
<path d="" fill="#225C62" transform="translate(0,0)"/>
<path d="" fill="#286268" transform="translate(0,0)"/>
<path d="" fill="#24565C" transform="translate(0,0)"/>
<path d="" fill="#2A6267" transform="translate(0,0)"/>
<path d="" fill="#21555D" transform="translate(0,0)"/>
<path d="" fill="#285F67" transform="translate(0,0)"/>
<path d="" fill="#265E64" transform="translate(0,0)"/>
<path d="" fill="#256165" transform="translate(0,0)"/>
<path d="" fill="#266165" transform="translate(0,0)"/>
<path d="" fill="#246166" transform="translate(0,0)"/>
<path d="" fill="#236067" transform="translate(0,0)"/>
<path d="" fill="#205258" transform="translate(0,0)"/>
<path d="" fill="#285B62" transform="translate(0,0)"/>
<path d="" fill="#1E5056" transform="translate(0,0)"/>
<path d="" fill="#255F61" transform="translate(0,0)"/>
<path d="" fill="#265F63" transform="translate(0,0)"/>
<path d="" fill="#285E62" transform="translate(0,0)"/>
<path d="" fill="#276066" transform="translate(0,0)"/>
<path d="" fill="#1F5359" transform="translate(0,0)"/>
<path d="" fill="#23545C" transform="translate(0,0)"/>
<path d="" fill="#205157" transform="translate(0,0)"/>
<path d="" fill="#235459" transform="translate(0,0)"/>
<path d="" fill="#256066" transform="translate(0,0)"/>
<path d="" fill="#24555A" transform="translate(0,0)"/>
<path d="" fill="#23575C" transform="translate(0,0)"/>
<path d="" fill="#2B646A" transform="translate(0,0)"/>
<path d="" fill="#29656B" transform="translate(0,0)"/>
<path d="" fill="#276066" transform="translate(0,0)"/>
<path d="" fill="#2A6469" transform="translate(0,0)"/>
<path d="" fill="#2A6368" transform="translate(0,0)"/>
<path d="" fill="#2B6469" transform="translate(0,0)"/>
<path d="" fill="#2B6469" transform="translate(0,0)"/>
<path d="" fill="#1F5254" transform="translate(0,0)"/>
<path d="" fill="#2B656A" transform="translate(0,0)"/>
<path d="" fill="#2B646A" transform="translate(0,0)"/>
<path d="" fill="#2C646C" transform="translate(0,0)"/>
<path d="" fill="#2B6368" transform="translate(0,0)"/>
<path d="" fill="#2D656A" transform="translate(0,0)"/>
<path d="" fill="#2A646A" transform="translate(0,0)"/>
<path d="" fill="#286064" transform="translate(0,0)"/>
<path d="" fill="#296467" transform="translate(0,0)"/>
<path d="" fill="#2B6165" transform="translate(0,0)"/>
<path d="" fill="#286569" transform="translate(0,0)"/>
<path d="" fill="#235056" transform="translate(0,0)"/>
<path d="" fill="#286065" transform="translate(0,0)"/>
<path d="" fill="#286368" transform="translate(0,0)"/>
<path d="" fill="#205157" transform="translate(0,0)"/>
<path d="" fill="#20525A" transform="translate(0,0)"/>
<path d="" fill="#2A6167" transform="translate(0,0)"/>
<path d="" fill="#22545A" transform="translate(0,0)"/>
<path d="" fill="#256064" transform="translate(0,0)"/>
<path d="" fill="#2A6369" transform="translate(0,0)"/>
<path d="" fill="#2B5F67" transform="translate(0,0)"/>
<path d="" fill="#286067" transform="translate(0,0)"/>
<path d="" fill="#2C6368" transform="translate(0,0)"/>
<path d="" fill="#215258" transform="translate(0,0)"/>
<path d="" fill="#215158" transform="translate(0,0)"/>
<path d="" fill="#255B62" transform="translate(0,0)"/>
<path d="" fill="#1E5257" transform="translate(0,0)"/>
<path d="" fill="#2A6066" transform="translate(0,0)"/>
<path d="" fill="#286166" transform="translate(0,0)"/>
<path d="" fill="#23565A" transform="translate(0,0)"/>
<path d="" fill="#286467" transform="translate(0,0)"/>
<path d="" fill="#265F66" transform="translate(0,0)"/>
<path d="" fill="#215357" transform="translate(0,0)"/>
<path d="" fill="#285F63" transform="translate(0,0)"/>
<path d="" fill="#205056" transform="translate(0,0)"/>
<path d="" fill="#296469" transform="translate(0,0)"/>
<path d="" fill="#23565B" transform="translate(0,0)"/>
<path d="" fill="#1D4F54" transform="translate(0,0)"/>
<path d="" fill="#295F66" transform="translate(0,0)"/>
<path d="" fill="#1F5258" transform="translate(0,0)"/>
<path d="" fill="#2B6168" transform="translate(0,0)"/>
<path d="" fill="#296168" transform="translate(0,0)"/>
<path d="" fill="#2A6266" transform="translate(0,0)"/>
<path d="" fill="#26555B" transform="translate(0,0)"/>
<path d="" fill="#255C62" transform="translate(0,0)"/>
<path d="" fill="#225458" transform="translate(0,0)"/>
<path d="" fill="#276164" transform="translate(0,0)"/>
<path d="" fill="#265F63" transform="translate(0,0)"/>
<path d="" fill="#296167" transform="translate(0,0)"/>
<path d="" fill="#2B6469" transform="translate(0,0)"/>
<path d="" fill="#286166" transform="translate(0,0)"/>
<path d="" fill="#215458" transform="translate(0,0)"/>
<path d="" fill="#285E62" transform="translate(0,0)"/>
<path d="" fill="#25585B" transform="translate(0,0)"/>
<path d="" fill="#2A5E63" transform="translate(0,0)"/>
<path d="" fill="#296167" transform="translate(0,0)"/>
<path d="" fill="#265B64" transform="translate(0,0)"/>
<path d="" fill="#215256" transform="translate(0,0)"/>
<path d="" fill="#285E66" transform="translate(0,0)"/>
<path d="" fill="#24575B" transform="translate(0,0)"/>
<path d="" fill="#286165" transform="translate(0,0)"/>
<path d="" fill="#295F66" transform="translate(0,0)"/>
<path d="" fill="#235258" transform="translate(0,0)"/>
<path d="" fill="#266165" transform="translate(0,0)"/>
<path d="" fill="#2A6468" transform="translate(0,0)"/>
<path d="" fill="#265D65" transform="translate(0,0)"/>
<path d="" fill="#275D62" transform="translate(0,0)"/>
<path d="" fill="#286266" transform="translate(0,0)"/>
<path d="" fill="#275C62" transform="translate(0,0)"/>
<path d="" fill="#275D61" transform="translate(0,0)"/>
<path d="" fill="#2A626A" transform="translate(0,0)"/>
<path d="" fill="#215358" transform="translate(0,0)"/>
<path d="" fill="#286367" transform="translate(0,0)"/>
<path d="" fill="#255C61" transform="translate(0,0)"/>
<path d="" fill="#23555A" transform="translate(0,0)"/>
<path d="" fill="#276067" transform="translate(0,0)"/>
<path d="" fill="#2A6066" transform="translate(0,0)"/>
<path d="" fill="#246066" transform="translate(0,0)"/>
<path d="" fill="#295F65" transform="translate(0,0)"/>
<path d="" fill="#245559" transform="translate(0,0)"/>
<path d="" fill="#25565E" transform="translate(0,0)"/>
<path d="" fill="#26565A" transform="translate(0,0)"/>
<path d="" fill="#276267" transform="translate(0,0)"/>
<path d="" fill="#276068" transform="translate(0,0)"/>
<path d="" fill="#245D61" transform="translate(0,0)"/>
<path d="" fill="#225458" transform="translate(0,0)"/>
<path d="" fill="#286166" transform="translate(0,0)"/>
<path d="" fill="#215358" transform="translate(0,0)"/>
<path d="" fill="#275E67" transform="translate(0,0)"/>
<path d="" fill="#285F66" transform="translate(0,0)"/>
<path d="" fill="#2D666C" transform="translate(0,0)"/>
<path d="" fill="#285F65" transform="translate(0,0)"/>
<path d="" fill="#285F64" transform="translate(0,0)"/>
<path d="" fill="#2C6166" transform="translate(0,0)"/>
<path d="" fill="#24545A" transform="translate(0,0)"/>
<path d="" fill="#286268" transform="translate(0,0)"/>
<path d="" fill="#2A5F66" transform="translate(0,0)"/>
<path d="" fill="#286368" transform="translate(0,0)"/>
<path d="" fill="#296066" transform="translate(0,0)"/>
<path d="" fill="#215558" transform="translate(0,0)"/>
<path d="" fill="#2A6469" transform="translate(0,0)"/>
<path d="" fill="#286366" transform="translate(0,0)"/>
<path d="" fill="#2A6168" transform="translate(0,0)"/>
<path d="" fill="#295C63" transform="translate(0,0)"/>
<path d="" fill="#276068" transform="translate(0,0)"/>
<path d="" fill="#296168" transform="translate(0,0)"/>
<path d="" fill="#296166" transform="translate(0,0)"/>
<path d="" fill="#2A6366" transform="translate(0,0)"/>
<path d="" fill="#2B6169" transform="translate(0,0)"/>
<path d="" fill="#276469" transform="translate(0,0)"/>
<path d="" fill="#296068" transform="translate(0,0)"/>
<path d="" fill="#285F65" transform="translate(0,0)"/>
<path d="" fill="#275F66" transform="translate(0,0)"/>
<path d="" fill="#286267" transform="translate(0,0)"/>
<path d="" fill="#286166" transform="translate(0,0)"/>
<path d="" fill="#296065" transform="translate(0,0)"/>
<path d="" fill="#235458" transform="translate(0,0)"/>
<path d="" fill="#296169" transform="translate(0,0)"/>
<path d="" fill="#23555A" transform="translate(0,0)"/>
<path d="" fill="#2D6367" transform="translate(0,0)"/>
<path d="" fill="#23545A" transform="translate(0,0)"/>
<path d="" fill="#296469" transform="translate(0,0)"/>
<path d="" fill="#286468" transform="translate(0,0)"/>
<path d="" fill="#24545A" transform="translate(0,0)"/>
<path d="" fill="#225A5D" transform="translate(0,0)"/>
<path d="" fill="#266167" transform="translate(0,0)"/>
<path d="" fill="#285B63" transform="translate(0,0)"/>
<path d="" fill="#275F65" transform="translate(0,0)"/>
<path d="" fill="#286469" transform="translate(0,0)"/>
<path d="" fill="#296368" transform="translate(0,0)"/>
<path d="" fill="#2A5F65" transform="translate(0,0)"/>
<path d="" fill="#234E50" transform="translate(0,0)"/>
<path d="" fill="#286067" transform="translate(0,0)"/>
<path d="" fill="#286167" transform="translate(0,0)"/>
<path d="" fill="#296166" transform="translate(0,0)"/>
<path d="" fill="#296266" transform="translate(0,0)"/>
<path d="" fill="#225256" transform="translate(0,0)"/>
<path d="" fill="#24575C" transform="translate(0,0)"/>
<path d="" fill="#255A62" transform="translate(0,0)"/>
<path d="" fill="#23555A" transform="translate(0,0)"/>
<path d="" fill="#2A6167" transform="translate(0,0)"/>
<path d="" fill="#2B6368" transform="translate(0,0)"/>
<path d="" fill="#25565B" transform="translate(0,0)"/>
<path d="" fill="#295F67" transform="translate(0,0)"/>
<path d="" fill="#26575A" transform="translate(0,0)"/>
<path d="" fill="#245759" transform="translate(0,0)"/>
<path d="" fill="#296267" transform="translate(0,0)"/>
<path d="" fill="#2B6367" transform="translate(0,0)"/>
<path d="" fill="#26565A" transform="translate(0,0)"/>
<path d="" fill="#25575B" transform="translate(0,0)"/>
<path d="" fill="#24585D" transform="translate(0,0)"/>
<path d="" fill="#296165" transform="translate(0,0)"/>
<path d="" fill="#20545A" transform="translate(0,0)"/>
<path d="" fill="#266164" transform="translate(0,0)"/>
<path d="" fill="#286268" transform="translate(0,0)"/>
<path d="" fill="#296267" transform="translate(0,0)"/>
<path d="" fill="#2C6469" transform="translate(0,0)"/>
<path d="" fill="#276167" transform="translate(0,0)"/>
<path d="" fill="#296469" transform="translate(0,0)"/>
<path d="" fill="#286167" transform="translate(0,0)"/>
<path d="" fill="#2B656B" transform="translate(0,0)"/>
<path d="" fill="#286168" transform="translate(0,0)"/>
<path d="" fill="#276368" transform="translate(0,0)"/>
<path d="" fill="#24565C" transform="translate(0,0)"/>
<path d="" fill="#29646B" transform="translate(0,0)"/>
<path d="" fill="#2A6568" transform="translate(0,0)"/>
<path d="" fill="#24565C" transform="translate(0,0)"/>
<path d="" fill="#24575C" transform="translate(0,0)"/>
<path d="" fill="#286167" transform="translate(0,0)"/>
<path d="" fill="#24575D" transform="translate(0,0)"/>
<path d="" fill="#285F67" transform="translate(0,0)"/>
<path d="" fill="#275F64" transform="translate(0,0)"/>
<path d="" fill="#275F64" transform="translate(0,0)"/>
<path d="" fill="#286267" transform="translate(0,0)"/>
<path d="" fill="#276568" transform="translate(0,0)"/>
<path d="" fill="#2A646A" transform="translate(0,0)"/>
<path d="" fill="#2A666C" transform="translate(0,0)"/>
<path d="" fill="#286168" transform="translate(0,0)"/>
<path d="" fill="#255A5D" transform="translate(0,0)"/>
<path d="" fill="#255B5F" transform="translate(0,0)"/>
<path d="" fill="#286267" transform="translate(0,0)"/>
<path d="" fill="#25595E" transform="translate(0,0)"/>
<path d="" fill="#296169" transform="translate(0,0)"/>
<path d="" fill="#295F66" transform="translate(0,0)"/>
<path d="" fill="#2A6367" transform="translate(0,0)"/>
<path d="" fill="#26585E" transform="translate(0,0)"/>
<path d="" fill="#296269" transform="translate(0,0)"/>
<path d="" fill="#245A5D" transform="translate(0,0)"/>
<path d="" fill="#295F65" transform="translate(0,0)"/>
<path d="" fill="#275B61" transform="translate(0,0)"/>
<path d="" fill="#2A656B" transform="translate(0,0)"/>
<path d="" fill="#275D61" transform="translate(0,0)"/>
<path d="" fill="#2B686A" transform="translate(0,0)"/>
<path d="" fill="#266166" transform="translate(0,0)"/>
<path d="" fill="#275F65" transform="translate(0,0)"/>
<path d="" fill="#29646A" transform="translate(0,0)"/>
<path d="" fill="#286367" transform="translate(0,0)"/>
<path d="" fill="#24595D" transform="translate(0,0)"/>
<path d="" fill="#276165" transform="translate(0,0)"/>
<path d="" fill="#2A6369" transform="translate(0,0)"/>
<path d="" fill="#276064" transform="translate(0,0)"/>
<path d="" fill="#2A6268" transform="translate(0,0)"/>
<path d="" fill="#275C5F" transform="translate(0,0)"/>
<path d="" fill="#286267" transform="translate(0,0)"/>
<path d="" fill="#255B5F" transform="translate(0,0)"/>
<path d="" fill="#255B60" transform="translate(0,0)"/>
<path d="" fill="#23585D" transform="translate(0,0)"/>
<path d="" fill="#2C676B" transform="translate(0,0)"/>
<path d="" fill="#2C656B" transform="translate(0,0)"/>
<path d="" fill="#2B646A" transform="translate(0,0)"/>
<path d="" fill="#296268" transform="translate(0,0)"/>
<path d="" fill="#2A676C" transform="translate(0,0)"/>
<path d="" fill="#255C63" transform="translate(0,0)"/>
<path d="" fill="#276167" transform="translate(0,0)"/>
<path d="" fill="#255A5C" transform="translate(0,0)"/>
<path d="" fill="#23575B" transform="translate(0,0)"/>
<path d="" fill="#286268" transform="translate(0,0)"/>
<path d="" fill="#286467" transform="translate(0,0)"/>
<path d="" fill="#23595B" transform="translate(0,0)"/>
<path d="" fill="#286265" transform="translate(0,0)"/>
<path d="" fill="#296268" transform="translate(0,0)"/>
<path d="" fill="#276166" transform="translate(0,0)"/>
<path d="" fill="#286065" transform="translate(0,0)"/>
<path d="" fill="#286264" transform="translate(0,0)"/>
<path d="" fill="#276165" transform="translate(0,0)"/>
<path d="" fill="#276267" transform="translate(0,0)"/>
<path d="" fill="#296267" transform="translate(0,0)"/>
<path d="" fill="#25585D" transform="translate(0,0)"/>
<path d="" fill="#275E66" transform="translate(0,0)"/>
<path d="" fill="#24585D" transform="translate(0,0)"/>
<path d="" fill="#265C5F" transform="translate(0,0)"/>
<path d="" fill="#26595D" transform="translate(0,0)"/>
<path d="" fill="#27575D" transform="translate(0,0)"/>
<path d="" fill="#24585D" transform="translate(0,0)"/>
<path d="" fill="#255A5D" transform="translate(0,0)"/>
<path d="" fill="#286266" transform="translate(0,0)"/>
<path d="" fill="#25585C" transform="translate(0,0)"/>
<path d="" fill="#275C63" transform="translate(0,0)"/>
<path d="" fill="#26565B" transform="translate(0,0)"/>
<path d="" fill="#29676A" transform="translate(0,0)"/>
<path d="" fill="#2A646A" transform="translate(0,0)"/>
<path d="" fill="#296366" transform="translate(0,0)"/>
<path d="" fill="#2A5F64" transform="translate(0,0)"/>
<path d="" fill="#265A5F" transform="translate(0,0)"/>
<path d="" fill="#275F65" transform="translate(0,0)"/>
<path d="" fill="#26565C" transform="translate(0,0)"/>
<path d="" fill="#276166" transform="translate(0,0)"/>
<path d="" fill="#23575C" transform="translate(0,0)"/>
<path d="" fill="#285F65" transform="translate(0,0)"/>
<path d="" fill="#225D63" transform="translate(0,0)"/>
<path d="" fill="#276065" transform="translate(0,0)"/>
<path d="" fill="#24575B" transform="translate(0,0)"/>
<path d="" fill="#24585F" transform="translate(0,0)"/>
<path d="" fill="#245459" transform="translate(0,0)"/>
<path d="" fill="#296168" transform="translate(0,0)"/>
<path d="" fill="#285F64" transform="translate(0,0)"/>
<path d="" fill="#2A636B" transform="translate(0,0)"/>
<path d="" fill="#276164" transform="translate(0,0)"/>
<path d="" fill="#2C6367" transform="translate(0,0)"/>
<path d="" fill="#27575E" transform="translate(0,0)"/>
<path d="" fill="#286267" transform="translate(0,0)"/>
<path d="" fill="#255C65" transform="translate(0,0)"/>
<path d="" fill="#265B65" transform="translate(0,0)"/>
<path d="" fill="#26585E" transform="translate(0,0)"/>
<path d="" fill="#29636A" transform="translate(0,0)"/>
<path d="" fill="#215258" transform="translate(0,0)"/>
<path d="" fill="#265A5E" transform="translate(0,0)"/>
<path d="" fill="#25565A" transform="translate(0,0)"/>
<path d="" fill="#2A666A" transform="translate(0,0)"/>
<path d="" fill="#26575E" transform="translate(0,0)"/>
<path d="" fill="#255459" transform="translate(0,0)"/>
<path d="" fill="#286167" transform="translate(0,0)"/>
<path d="" fill="#275F65" transform="translate(0,0)"/>
<path d="" fill="#2C6063" transform="translate(0,0)"/>
<path d="" fill="#275F67" transform="translate(0,0)"/>
<path d="" fill="#2B6469" transform="translate(0,0)"/>
<path d="" fill="#276264" transform="translate(0,0)"/>
<path d="" fill="#296368" transform="translate(0,0)"/>
<path d="" fill="#22555B" transform="translate(0,0)"/>
<path d="" fill="#2A6269" transform="translate(0,0)"/>
<path d="" fill="#29626A" transform="translate(0,0)"/>
<path d="" fill="#24595C" transform="translate(0,0)"/>
<path d="" fill="#2B6267" transform="translate(0,0)"/>
<path d="" fill="#255D63" transform="translate(0,0)"/>
<path d="" fill="#286269" transform="translate(0,0)"/>
<path d="" fill="#2A6164" transform="translate(0,0)"/>
<path d="" fill="#265F66" transform="translate(0,0)"/>
<path d="" fill="#286268" transform="translate(0,0)"/>
<path d="" fill="#25565A" transform="translate(0,0)"/>
<path d="" fill="#285F67" transform="translate(0,0)"/>
<path d="" fill="#296168" transform="translate(0,0)"/>
<path d="" fill="#276166" transform="translate(0,0)"/>
<path d="" fill="#276065" transform="translate(0,0)"/>
<path d="" fill="#275F66" transform="translate(0,0)"/>
<path d="" fill="#245D62" transform="translate(0,0)"/>
<path d="" fill="#2A5F66" transform="translate(0,0)"/>
<path d="" fill="#2B6169" transform="translate(0,0)"/>
<path d="" fill="#25575B" transform="translate(0,0)"/>
<path d="" fill="#276067" transform="translate(0,0)"/>
<path d="" fill="#296169" transform="translate(0,0)"/>
<path d="" fill="#276267" transform="translate(0,0)"/>
<path d="" fill="#286167" transform="translate(0,0)"/>
<path d="" fill="#276167" transform="translate(0,0)"/>
<path d="" fill="#22565C" transform="translate(0,0)"/>
<path d="" fill="#275C61" transform="translate(0,0)"/>
<path d="" fill="#295F64" transform="translate(0,0)"/>
<path d="" fill="#285C64" transform="translate(0,0)"/>
<path d="" fill="#265F68" transform="translate(0,0)"/>
<path d="" fill="#226067" transform="translate(0,0)"/>
<path d="" fill="#2A6066" transform="translate(0,0)"/>
<path d="" fill="#265E66" transform="translate(0,0)"/>
<path d="" fill="#2A6165" transform="translate(0,0)"/>
<path d="" fill="#2A6166" transform="translate(0,0)"/>
<path d="" fill="#296165" transform="translate(0,0)"/>
<path d="" fill="#255F66" transform="translate(0,0)"/>
<path d="" fill="#26595C" transform="translate(0,0)"/>
<path d="" fill="#296065" transform="translate(0,0)"/>
<path d="" fill="#256166" transform="translate(0,0)"/>
<path d="" fill="#286267" transform="translate(0,0)"/>
<path d="" fill="#265659" transform="translate(0,0)"/>
<path d="" fill="#296468" transform="translate(0,0)"/>
<path d="" fill="#266167" transform="translate(0,0)"/>
<path d="" fill="#255A62" transform="translate(0,0)"/>
<path d="" fill="#2A6166" transform="translate(0,0)"/>
<path d="" fill="#245F64" transform="translate(0,0)"/>
<path d="" fill="#2A6068" transform="translate(0,0)"/>
<path d="" fill="#22565A" transform="translate(0,0)"/>
<path d="" fill="#2A6166" transform="translate(0,0)"/>
<path d="" fill="#2B5D65" transform="translate(0,0)"/>
<path d="" fill="#275F65" transform="translate(0,0)"/>
<path d="" fill="#296168" transform="translate(0,0)"/>
<path d="" fill="#296167" transform="translate(0,0)"/>
<path d="" fill="#266165" transform="translate(0,0)"/>
<path d="" fill="#265C5F" transform="translate(0,0)"/>
<path d="" fill="#296168" transform="translate(0,0)"/>
<path d="" fill="#296168" transform="translate(0,0)"/>
<path d="" fill="#255E65" transform="translate(0,0)"/>
<path d="" fill="#296064" transform="translate(0,0)"/>
<path d="" fill="#286267" transform="translate(0,0)"/>
<path d="" fill="#245D63" transform="translate(0,0)"/>
<path d="" fill="#286265" transform="translate(0,0)"/>
<path d="" fill="#256268" transform="translate(0,0)"/>
<path d="" fill="#286166" transform="translate(0,0)"/>
<path d="" fill="#295F67" transform="translate(0,0)"/>
<path d="" fill="#255B63" transform="translate(0,0)"/>
<path d="" fill="#266067" transform="translate(0,0)"/>
<path d="" fill="#2A6569" transform="translate(0,0)"/>
<path d="" fill="#2B6167" transform="translate(0,0)"/>
<path d="" fill="#2A6168" transform="translate(0,0)"/>
<path d="" fill="#2B6369" transform="translate(0,0)"/>
<path d="" fill="#275F65" transform="translate(0,0)"/>
<path d="" fill="#205257" transform="translate(0,0)"/>
<path d="" fill="#285D66" transform="translate(0,0)"/>
<path d="" fill="#2A6369" transform="translate(0,0)"/>
<path d="" fill="#2B6269" transform="translate(0,0)"/>
<path d="" fill="#2A6067" transform="translate(0,0)"/>
<path d="" fill="#2A6166" transform="translate(0,0)"/>
<path d="" fill="#296367" transform="translate(0,0)"/>
<path d="" fill="#275F66" transform="translate(0,0)"/>
<path d="" fill="#21575C" transform="translate(0,0)"/>
<path d="" fill="#295D65" transform="translate(0,0)"/>
<path d="" fill="#25585B" transform="translate(0,0)"/>
<path d="" fill="#24565A" transform="translate(0,0)"/>
<path d="" fill="#276268" transform="translate(0,0)"/>
<path d="" fill="#285F66" transform="translate(0,0)"/>
<path d="" fill="#25555B" transform="translate(0,0)"/>
<path d="" fill="#296067" transform="translate(0,0)"/>
<path d="" fill="#29626A" transform="translate(0,0)"/>
<path d="" fill="#296468" transform="translate(0,0)"/>
<path d="" fill="#296669" transform="translate(0,0)"/>
<path d="" fill="#265C62" transform="translate(0,0)"/>
<path d="" fill="#285D62" transform="translate(0,0)"/>
<path d="" fill="#265C62" transform="translate(0,0)"/>
<path d="" fill="#296267" transform="translate(0,0)"/>
<path d="" fill="#235F65" transform="translate(0,0)"/>
<path d="" fill="#205358" transform="translate(0,0)"/>
<path d="" fill="#22565C" transform="translate(0,0)"/>
<path d="" fill="#265D65" transform="translate(0,0)"/>
<path d="" fill="#20565B" transform="translate(0,0)"/>
<path d="" fill="#275F67" transform="translate(0,0)"/>
<path d="" fill="#265F65" transform="translate(0,0)"/>
<path d="" fill="#23555B" transform="translate(0,0)"/>
<path d="" fill="#2B6469" transform="translate(0,0)"/>
<path d="" fill="#296266" transform="translate(0,0)"/>
<path d="" fill="#235659" transform="translate(0,0)"/>
<path d="" fill="#22565B" transform="translate(0,0)"/>
<path d="" fill="#276569" transform="translate(0,0)"/>
<path d="" fill="#286269" transform="translate(0,0)"/>
<path d="" fill="#25595E" transform="translate(0,0)"/>
<path d="" fill="#23575D" transform="translate(0,0)"/>
<path d="" fill="#285D63" transform="translate(0,0)"/>
<path d="" fill="#266065" transform="translate(0,0)"/>
<path d="" fill="#2A6168" transform="translate(0,0)"/>
<path d="" fill="#245C60" transform="translate(0,0)"/>
<path d="" fill="#265D64" transform="translate(0,0)"/>
<path d="" fill="#2A6166" transform="translate(0,0)"/>
<path d="" fill="#286266" transform="translate(0,0)"/>
<path d="" fill="#276062" transform="translate(0,0)"/>
<path d="" fill="#2D6569" transform="translate(0,0)"/>
<path d="" fill="#296165" transform="translate(0,0)"/>
<path d="" fill="#255D62" transform="translate(0,0)"/>
<path d="" fill="#296268" transform="translate(0,0)"/>
<path d="" fill="#245D63" transform="translate(0,0)"/>
<path d="" fill="#2A6168" transform="translate(0,0)"/>
<path d="" fill="#265E65" transform="translate(0,0)"/>
<path d="" fill="#22585A" transform="translate(0,0)"/>
<path d="" fill="#215356" transform="translate(0,0)"/>
<path d="" fill="#225A61" transform="translate(0,0)"/>
<path d="" fill="#235257" transform="translate(0,0)"/>
<path d="" fill="#275B63" transform="translate(0,0)"/>
<path d="" fill="#275F67" transform="translate(0,0)"/>
<path d="" fill="#2D676A" transform="translate(0,0)"/>
<path d="" fill="#245D60" transform="translate(0,0)"/>
<path d="" fill="#2A6368" transform="translate(0,0)"/>
<path d="" fill="#28676C" transform="translate(0,0)"/>
<path d="" fill="#22595E" transform="translate(0,0)"/>
<path d="" fill="#26585C" transform="translate(0,0)"/>
<path d="" fill="#296468" transform="translate(0,0)"/>
<path d="" fill="#235657" transform="translate(0,0)"/>
<path d="" fill="#23565B" transform="translate(0,0)"/>
<path d="" fill="#255E64" transform="translate(0,0)"/>
<path d="" fill="#2D6568" transform="translate(0,0)"/>
<path d="" fill="#266065" transform="translate(0,0)"/>
<path d="" fill="#24575B" transform="translate(0,0)"/>
<path d="" fill="#2D656A" transform="translate(0,0)"/>
<path d="" fill="#276064" transform="translate(0,0)"/>
<path d="" fill="#215258" transform="translate(0,0)"/>
<path d="" fill="#265D65" transform="translate(0,0)"/>
<path d="" fill="#2A646A" transform="translate(0,0)"/>
<path d="" fill="#2A6469" transform="translate(0,0)"/>
<path d="" fill="#2A636B" transform="translate(0,0)"/>
<path d="" fill="#2A666B" transform="translate(0,0)"/>
<path d="" fill="#215456" transform="translate(0,0)"/>
<path d="" fill="#2A666A" transform="translate(0,0)"/>
<path d="" fill="#286268" transform="translate(0,0)"/>
<path d="" fill="#2A6369" transform="translate(0,0)"/>
<path d="" fill="#276368" transform="translate(0,0)"/>
<path d="" fill="#265F65" transform="translate(0,0)"/>
<path d="" fill="#295E64" transform="translate(0,0)"/>
<path d="" fill="#276166" transform="translate(0,0)"/>
<path d="" fill="#276069" transform="translate(0,0)"/>
<path d="" fill="#2A626A" transform="translate(0,0)"/>
<path d="" fill="#285D64" transform="translate(0,0)"/>
<path d="" fill="#225458" transform="translate(0,0)"/>
<path d="" fill="#2C676D" transform="translate(0,0)"/>
<path d="" fill="#20565A" transform="translate(0,0)"/>
<path d="" fill="#2B6469" transform="translate(0,0)"/>
<path d="" fill="#286368" transform="translate(0,0)"/>
<path d="" fill="#225459" transform="translate(0,0)"/>
<path d="" fill="#2A6469" transform="translate(0,0)"/>
<path d="" fill="#286269" transform="translate(0,0)"/>
<path d="" fill="#296366" transform="translate(0,0)"/>
<path d="" fill="#2C666B" transform="translate(0,0)"/>
<path d="" fill="#2D656C" transform="translate(0,0)"/>
<path d="" fill="#21595F" transform="translate(0,0)"/>
<path d="" fill="#235459" transform="translate(0,0)"/>
<path d="" fill="#2A6469" transform="translate(0,0)"/>
<path d="" fill="#245F65" transform="translate(0,0)"/>
<path d="" fill="#265B61" transform="translate(0,0)"/>
<path d="" fill="#2A6066" transform="translate(0,0)"/>
<path d="" fill="#24565B" transform="translate(0,0)"/>
<path d="" fill="#265F66" transform="translate(0,0)"/>
<path d="" fill="#22565B" transform="translate(0,0)"/>
<path d="" fill="#265F66" transform="translate(0,0)"/>
<path d="" fill="#255C64" transform="translate(0,0)"/>
<path d="" fill="#1F545A" transform="translate(0,0)"/>
<path d="" fill="#235358" transform="translate(0,0)"/>
<path d="" fill="#22575A" transform="translate(0,0)"/>
<path d="" fill="#255E65" transform="translate(0,0)"/>
<path d="" fill="#266066" transform="translate(0,0)"/>
<path d="" fill="#22585A" transform="translate(0,0)"/>
<path d="" fill="#265E67" transform="translate(0,0)"/>
<path d="" fill="#225359" transform="translate(0,0)"/>
<path d="" fill="#295F66" transform="translate(0,0)"/>
<path d="" fill="#296066" transform="translate(0,0)"/>
<path d="" fill="#20545C" transform="translate(0,0)"/>
<path d="" fill="#21565A" transform="translate(0,0)"/>
<path d="" fill="#275F68" transform="translate(0,0)"/>
<path d="" fill="#286066" transform="translate(0,0)"/>
<path d="" fill="#1E5359" transform="translate(0,0)"/>
<path d="" fill="#276066" transform="translate(0,0)"/>
<path d="" fill="#295F64" transform="translate(0,0)"/>
<path d="" fill="#275C64" transform="translate(0,0)"/>
<path d="" fill="#235A64" transform="translate(0,0)"/>
<path d="" fill="#275C64" transform="translate(0,0)"/>
<path d="" fill="#286369" transform="translate(0,0)"/>
<path d="" fill="#265E63" transform="translate(0,0)"/>
<path d="" fill="#2A626A" transform="translate(0,0)"/>
<path d="" fill="#286066" transform="translate(0,0)"/>
<path d="" fill="#22585B" transform="translate(0,0)"/>
<path d="" fill="#21565A" transform="translate(0,0)"/>
<path d="" fill="#245C63" transform="translate(0,0)"/>
<path d="" fill="#296368" transform="translate(0,0)"/>
<path d="" fill="#28636A" transform="translate(0,0)"/>
<path d="" fill="#295F64" transform="translate(0,0)"/>
<path d="" fill="#28616A" transform="translate(0,0)"/>
<path d="" fill="#22575A" transform="translate(0,0)"/>
<path d="" fill="#2B646B" transform="translate(0,0)"/>
<path d="" fill="#265D65" transform="translate(0,0)"/>
<path d="" fill="#275D64" transform="translate(0,0)"/>
<path d="" fill="#296569" transform="translate(0,0)"/>
<path d="" fill="#275D66" transform="translate(0,0)"/>
<path d="" fill="#21565B" transform="translate(0,0)"/>
<path d="" fill="#2A6369" transform="translate(0,0)"/>
<path d="" fill="#286167" transform="translate(0,0)"/>
<path d="" fill="#235659" transform="translate(0,0)"/>
<path d="" fill="#286067" transform="translate(0,0)"/>
<path d="" fill="#276368" transform="translate(0,0)"/>
<path d="" fill="#1E5459" transform="translate(0,0)"/>
<path d="" fill="#266369" transform="translate(0,0)"/>
<path d="" fill="#2A6369" transform="translate(0,0)"/>
<path d="" fill="#2A6267" transform="translate(0,0)"/>
<path d="" fill="#22565C" transform="translate(0,0)"/>
<path d="" fill="#286068" transform="translate(0,0)"/>
<path d="" fill="#266065" transform="translate(0,0)"/>
<path d="" fill="#276067" transform="translate(0,0)"/>
<path d="" fill="#23555B" transform="translate(0,0)"/>
<path d="" fill="#255659" transform="translate(0,0)"/>
<path d="" fill="#22565A" transform="translate(0,0)"/>
<path d="" fill="#276268" transform="translate(0,0)"/>
<path d="" fill="#2B6064" transform="translate(0,0)"/>
<path d="" fill="#2D6770" transform="translate(0,0)"/>
<path d="" fill="#276064" transform="translate(0,0)"/>
<path d="" fill="#235F66" transform="translate(0,0)"/>
<path d="" fill="#296269" transform="translate(0,0)"/>
<path d="" fill="#276369" transform="translate(0,0)"/>
<path d="" fill="#25595D" transform="translate(0,0)"/>
<path d="" fill="#22545A" transform="translate(0,0)"/>
<path d="" fill="#286268" transform="translate(0,0)"/>
<path d="" fill="#276267" transform="translate(0,0)"/>
<path d="" fill="#24575D" transform="translate(0,0)"/>
<path d="" fill="#255F64" transform="translate(0,0)"/>
<path d="" fill="#245C62" transform="translate(0,0)"/>
<path d="" fill="#2C6569" transform="translate(0,0)"/>
<path d="" fill="#246066" transform="translate(0,0)"/>
<path d="" fill="#23575D" transform="translate(0,0)"/>
<path d="" fill="#22565B" transform="translate(0,0)"/>
<path d="" fill="#29646A" transform="translate(0,0)"/>
<path d="" fill="#266167" transform="translate(0,0)"/>
<path d="" fill="#2A6268" transform="translate(0,0)"/>
<path d="" fill="#276467" transform="translate(0,0)"/>
<path d="" fill="#205257" transform="translate(0,0)"/>
<path d="" fill="#266268" transform="translate(0,0)"/>
<path d="" fill="#286268" transform="translate(0,0)"/>
<path d="" fill="#26585E" transform="translate(0,0)"/>
<path d="" fill="#296169" transform="translate(0,0)"/>
<path d="" fill="#265C64" transform="translate(0,0)"/>
<path d="" fill="#296169" transform="translate(0,0)"/>
<path d="" fill="#255E65" transform="translate(0,0)"/>
<path d="" fill="#23575A" transform="translate(0,0)"/>
<path d="" fill="#2A646A" transform="translate(0,0)"/>
<path d="" fill="#245459" transform="translate(0,0)"/>
<path d="" fill="#215459" transform="translate(0,0)"/>
<path d="" fill="#205659" transform="translate(0,0)"/>
<path d="" fill="#21535C" transform="translate(0,0)"/>
<path d="" fill="#23565B" transform="translate(0,0)"/>
<path d="" fill="#235559" transform="translate(0,0)"/>
<path d="" fill="#20545A" transform="translate(0,0)"/>
<path d="" fill="#25595C" transform="translate(0,0)"/>
<path d="" fill="#22595B" transform="translate(0,0)"/>
<path d="" fill="#24585C" transform="translate(0,0)"/>
<path d="" fill="#205359" transform="translate(0,0)"/>
<path d="" fill="#265458" transform="translate(0,0)"/>
<path d="" fill="#22585E" transform="translate(0,0)"/>
<path d="" fill="#25585D" transform="translate(0,0)"/>
<path d="" fill="#24575C" transform="translate(0,0)"/>
<path d="" fill="#215557" transform="translate(0,0)"/>
<path d="" fill="#23555C" transform="translate(0,0)"/>
<path d="" fill="#22575B" transform="translate(0,0)"/>
<path d="" fill="#265C61" transform="translate(0,0)"/>
<path d="" fill="#275D64" transform="translate(0,0)"/>
<path d="" fill="#265D63" transform="translate(0,0)"/>
<path d="" fill="#27565E" transform="translate(0,0)"/>
<path d="" fill="#255B60" transform="translate(0,0)"/>
<path d="" fill="#23585C" transform="translate(0,0)"/>
<path d="" fill="#245B5E" transform="translate(0,0)"/>
<path d="" fill="#275D62" transform="translate(0,0)"/>
<path d="" fill="#23585F" transform="translate(0,0)"/>
<path d="" fill="#255C62" transform="translate(0,0)"/>
<path d="" fill="#255C62" transform="translate(0,0)"/>
<path d="" fill="#23555B" transform="translate(0,0)"/>
<path d="" fill="#24565B" transform="translate(0,0)"/>
<path d="" fill="#23565C" transform="translate(0,0)"/>
<path d="" fill="#26585F" transform="translate(0,0)"/>
<path d="" fill="#21565A" transform="translate(0,0)"/>
<path d="" fill="#225559" transform="translate(0,0)"/>
<path d="" fill="#25585E" transform="translate(0,0)"/>
<path d="" fill="#215256" transform="translate(0,0)"/>
<path d="" fill="#23585D" transform="translate(0,0)"/>
<path d="" fill="#26565B" transform="translate(0,0)"/>
<path d="" fill="#24595C" transform="translate(0,0)"/>
<path d="" fill="#23555B" transform="translate(0,0)"/>
<path d="" fill="#24555D" transform="translate(0,0)"/>
<path d="" fill="#153234" transform="translate(0,0)"/>
</svg>
